<svg id="Calque_1" data-name="Calque 1" xmlns="http://www.w3.org/2000/svg" viewBox="0 0 200 135.72"><defs><style>.cls-1{fill:#7f7f7f;}.cls-2{fill:#eaeaea;}</style></defs><title>broken_clouds</title><path class="cls-1" d="M179.15,90.6a25.42,25.42,0,0,0-23-34.28,40.81,40.81,0,1,0-79.78,17.1A33.88,33.88,0,0,0,79.88,141h94.71a25.41,25.41,0,0,0,4.56-50.4Z" transform="translate(0 -23.19)"/><path class="cls-2" d="M133.15,108.5a25.41,25.41,0,0,0-23-34.27,40.81,40.81,0,1,0-79.78,17.1,33.88,33.88,0,0,0,3.51,67.58h94.71a25.41,25.41,0,0,0,4.56-50.41Z" transform="translate(0 -23.19)"/></svg>