<svg id="Calque_1" data-name="Calque 1" xmlns="http://www.w3.org/2000/svg" viewBox="0 0 200 179.76"><defs><style>.cls-1{fill:#f4deb8;}.cls-2{fill:#eaeaea;}.cls-3{fill:#c2f6f9;}</style></defs><title>rain_night</title><path class="cls-1" d="M144,0c-.77,0-1.54,0-2.31.06a56,56,0,0,1-32.38,99.88A56,56,0,1,0,144,0Z"/><path class="cls-2" d="M133.15,85.5a25.41,25.41,0,0,0-23-34.27,40.81,40.81,0,1,0-79.78,17.1,33.88,33.88,0,0,0,3.51,67.58h94.71a25.41,25.41,0,0,0,4.56-50.41Z"/><rect class="cls-3" x="25" y="136" width="42" height="6" rx="3" transform="translate(-100.35 134.69) rotate(-70)"/><rect class="cls-3" x="39" y="170" width="14" height="6" rx="3" transform="translate(-132.3 157.06) rotate(-70)"/><rect class="cls-3" x="89" y="122" width="14" height="6" rx="3" transform="translate(-54.3 172.46) rotate(-70)"/><rect class="cls-3" x="89" y="149" width="14" height="6" rx="3" transform="translate(-79.67 190.22) rotate(-70)"/><rect class="cls-3" x="50" y="156" width="42" height="6" rx="3" transform="translate(-102.69 171.34) rotate(-70)"/><rect class="cls-3" x="64" y="122" width="14" height="6" rx="3" transform="translate(-70.75 148.97) rotate(-70)"/></svg>