<svg id="Calque_1" data-name="Calque 1" xmlns="http://www.w3.org/2000/svg" viewBox="0 0 200 179.57"><defs><style>.cls-1{fill:#7f7f7f;}.cls-2{fill:#eaeaea;}.cls-3{fill:#c2f6f9;}</style></defs><title>shower_rain</title><path class="cls-1" d="M179.15,67.6a25.42,25.42,0,0,0-23-34.28,40.81,40.81,0,1,0-79.78,17.1A33.88,33.88,0,0,0,79.88,118h94.71a25.41,25.41,0,0,0,4.56-50.4Z" transform="translate(0 -0.19)"/><path class="cls-2" d="M133.15,85.5a25.41,25.41,0,0,0-23-34.27,40.81,40.81,0,1,0-79.78,17.1,33.88,33.88,0,0,0,3.51,67.58h94.71a25.41,25.41,0,0,0,4.56-50.41Z" transform="translate(0 -0.19)"/><rect class="cls-3" x="25" y="136" width="42" height="6" rx="3" transform="translate(-100.35 134.5) rotate(-70)"/><rect class="cls-3" x="39" y="170" width="14" height="6" rx="3" transform="translate(-132.3 156.87) rotate(-70)"/><rect class="cls-3" x="89" y="122" width="14" height="6" rx="3" transform="translate(-54.3 172.27) rotate(-70)"/><rect class="cls-3" x="89" y="149" width="14" height="6" rx="3" transform="translate(-79.67 190.03) rotate(-70)"/><rect class="cls-3" x="50" y="156" width="42" height="6" rx="3" transform="translate(-102.69 171.15) rotate(-70)"/><rect class="cls-3" x="64" y="122" width="14" height="6" rx="3" transform="translate(-70.75 148.78) rotate(-70)"/></svg>