<svg id="Calque_1" data-name="Calque 1" xmlns="http://www.w3.org/2000/svg" viewBox="0 0 200 200"><defs><style>.cls-1{fill:#bbfffc;}</style></defs><title>snow</title><path class="cls-1" d="M191.52,107.63h.85a7.63,7.63,0,0,0,0-15.26h-.85l4.7-4.71a5.35,5.35,0,0,0-7.56-7.56L176.4,92.37h-58l41-41h17.34A5.35,5.35,0,0,0,182.11,46h0a5.35,5.35,0,0,0-5.35-5.34h-6.65l.6-.61a7.63,7.63,0,0,0-10.79-10.79l-.61.6V23.24a5.34,5.34,0,1,0-10.68,0V40.58l-41,41v-58L119.9,11.34a5.35,5.35,0,0,0-7.56-7.56l-4.71,4.7V7.63a7.63,7.63,0,1,0-15.26,0v.85l-4.71-4.7a5.35,5.35,0,0,0-7.56,7.56L92.37,23.6v58l-41-41V23.24a5.34,5.34,0,1,0-10.68,0v6.65l-.61-.6A7.63,7.63,0,0,0,29.29,40.08l.6.61H23.24A5.35,5.35,0,0,0,17.89,46h0a5.35,5.35,0,0,0,5.35,5.34H40.58l41,41h-58L11.34,80.1a5.35,5.35,0,0,0-7.56,7.56l4.7,4.71H7.63a7.63,7.63,0,1,0,0,15.26h.85l-4.7,4.71a5.34,5.34,0,1,0,7.56,7.55L23.6,107.63h58l-41,41H23.24a5.34,5.34,0,1,0,0,10.68h6.65l-.6.61a7.63,7.63,0,0,0,10.79,10.79l.61-.6v6.65a5.34,5.34,0,1,0,10.68,0V159.42l41-41v58L80.1,188.66a5.35,5.35,0,0,0,7.56,7.56l4.71-4.7v.85a7.63,7.63,0,0,0,15.26,0v-.85l4.71,4.7a5.35,5.35,0,0,0,7.56-7.56L107.63,176.4v-58l41,41v17.34a5.34,5.34,0,1,0,10.68,0v-6.65l.61.6a7.63,7.63,0,0,0,10.79-10.79l-.6-.61h6.65a5.34,5.34,0,1,0,0-10.68H159.42l-41-41h58l12.26,12.26a5.34,5.34,0,1,0,7.56-7.55ZM100,109.22a9.22,9.22,0,1,1,9.22-9.22A9.22,9.22,0,0,1,100,109.22Z"/></svg>