<svg id="Calque_1" data-name="Calque 1" xmlns="http://www.w3.org/2000/svg" viewBox="0 0 200 199.81"><defs><style>.cls-1{fill:#7f7f7f;}.cls-2{fill:#eaeaea;}.cls-3{fill:#f9ec53;}</style></defs><title>thunderstorm</title><path class="cls-1" d="M179.15,67.6a25.42,25.42,0,0,0-23-34.28,40.81,40.81,0,1,0-79.78,17.1A33.88,33.88,0,0,0,79.88,118h94.71a25.41,25.41,0,0,0,4.56-50.4Z" transform="translate(0 -0.19)"/><path class="cls-2" d="M133.15,85.5a25.41,25.41,0,0,0-23-34.27,40.81,40.81,0,1,0-79.78,17.1,33.88,33.88,0,0,0,3.51,67.58h94.71a25.41,25.41,0,0,0,4.56-50.41Z" transform="translate(0 -0.19)"/><path class="cls-3" d="M65.5,106H77a4.7,4.7,0,0,1,4.35,6.46L69.27,142.38A4.7,4.7,0,0,0,73,148.8l1.56.21a4.7,4.7,0,0,1,3.3,7.25L49,200l11.67-37.7a4.7,4.7,0,0,0-2.91-5.81l-5.56-2a4.7,4.7,0,0,1-2.93-5.77L61,109.36A4.7,4.7,0,0,1,65.5,106Z" transform="translate(0 -0.19)"/></svg>